<?xml version="1.0" standalone="no"?>
<!DOCTYPE svg PUBLIC "-//W3C//DTD SVG 1.1//EN" "http://www.w3.org/Graphics/SVG/1.1/DTD/svg11.dtd" >
<svg xmlns="http://www.w3.org/2000/svg">
<metadata></metadata>
<defs>
<font id="marathonbold" horiz-adv-x="1306" >
<font-face units-per-em="2048" ascent="1536" descent="-512" />
<missing-glyph horiz-adv-x="980" />
<glyph horiz-adv-x="0" />
<glyph horiz-adv-x="682" />
<glyph unicode=" "  horiz-adv-x="980" />
<glyph unicode="&#x09;" horiz-adv-x="980" />
<glyph unicode="&#xa0;" horiz-adv-x="980" />
<glyph unicode="-" d="M127 680v180q347 -10 491 -10q283 0 584 14l-47 -176q-212 8 -522 8q-252 0 -506 -16z" />
<glyph unicode="." horiz-adv-x="464" d="M104 0l2 152q67 0 277 10l-66 -162h-213z" />
<glyph unicode="A" horiz-adv-x="1509" d="M88 0q233 509 571 1378l156 88q498 -1146 651 -1466h-278q-49 114 -108 244t-85 190q-218 0 -359.5 1t-160.5 1q-9 -26 -36 -103t-51 -152.5t-54 -180.5h-246zM528 582h408q-39 90 -114 274t-99 240q-55 -149 -120.5 -319t-74.5 -195z" />
<glyph unicode="B" horiz-adv-x="1280" d="M174 1444h412q202 0 320 -92.5t118 -251.5q0 -176 -158 -301q120 -53 189 -150t69 -219q0 -187 -145 -308.5t-389 -121.5h-414q8 216 8 668q0 388 -10 776zM426 702q0 -296 8 -561h88q59 0 104.5 4.5t97 20.5t85 43.5t56 77.5t22.5 119q0 143 -78.5 219.5t-235.5 76.5 h-147zM426 840h164q56 0 98 20t65.5 53.5t34.5 71.5t11 80q0 108 -63 175t-161 67h-145q-4 -145 -4 -467z" />
<glyph unicode="C" horiz-adv-x="1538" d="M131 729q0 151 55.5 286.5t155.5 237.5t250.5 162t329.5 60h24q84 1 190 -17q122 -20 187 -53l53 -266q-259 160 -480 160q-18 0 -36 -1q-233 -13 -353 -157t-120 -396q0 -136 40 -249t107.5 -187.5t152 -118.5t177.5 -53q31 -3 63 -3q59 0 118 10q91 15 163 45.5 t124.5 61t88.5 60.5l-59 -250q-57 -34 -176 -63.5t-256 -30.5h-9q-216 0 -394 92q-182 94 -289 270t-107 400z" />
<glyph unicode="D" horiz-adv-x="1587" d="M168 1446h373q83 0 159 -2q225 -6 406.5 -101t282 -250t100.5 -337q0 -187 -88.5 -347.5t-244.5 -265.5t-353 -135q-76 -12 -205 -12q-30 0 -109.5 2t-138.5 2h-178v754q0 461 -4 692zM418 834q0 -388 10 -678q158 -27 254 -27q33 0 51 2h2q144 9 255 82t171 194t60 271 q0 147 -49.5 274.5t-145.5 208.5q-186 148 -528 148h-76q-4 -158 -4 -475z" />
<glyph unicode="E" horiz-adv-x="1214" d="M137 1446h807l14 -168q-267 12 -557 12q-4 -294 -4 -477h414l-27 -160q-73 6 -207 8.5t-180 4.5q2 -196 11 -523q230 0 378.5 20t366.5 83l-84 -203q-79 -19 -161.5 -30t-180.5 -14t-173 -3t-205 2t-210 2q17 557 17 692q0 279 -19 754z" />
<glyph unicode="F" horiz-adv-x="1253" d="M178 0q8 273 8 635q0 271 -4 811h946v-166q-280 10 -694 10q-1 -60 -1 -117t0.5 -142t0.5 -154h527l-39 -160q-176 9 -488 12q0 -380 8 -729h-264z" />
<glyph unicode="G" horiz-adv-x="1638" d="M131 729q0 152 53.5 287t151 237t246 162t327.5 60h20q84 0 199 -21q129 -25 195 -57l31 -258q-90 69 -229 119q-120 43 -259 43q-22 0 -45 -1q-94 -5 -176 -44t-144.5 -107t-96.5 -171q-31 -92 -31 -202v-26q4 -137 43.5 -250.5t104.5 -189t147.5 -120t175.5 -53.5 q32 -3 64 -3q82 0 161 18q110 26 168 71q5 187 8 443q-211 0 -311 -4l-33 151h572q5 -580 8 -672q-265 -171 -572 -174h-6q-162 0 -303 53q-143 55 -246.5 154t-163 242.5t-59.5 312.5z" />
<glyph unicode="H" horiz-adv-x="1634" d="M178 1446h264q-8 -172 -8 -567h778q0 324 -12 567h264q-8 -200 -8 -721q0 -344 21 -725h-271l6 731q-17 0 -260.5 1t-517.5 1q0 -468 10 -733h-260q6 399 6 725q0 369 -12 721z" />
<glyph unicode="I" horiz-adv-x="688" d="M233 1444h263q-9 -439 -9 -770q0 -135 12 -391.5t13 -282.5h-274q8 402 8 655q0 383 -13 789z" />
<glyph unicode="J" horiz-adv-x="911" d="M27 139q193 -50 239 -58q35 -6 64 -6q76 0 112 38q50 54 50 200q0 639 -19 1131h264q-10 -238 -10 -1116q-2 -109 -40 -188t-99 -123t-145 -65q-82 -21 -168 -21q-2 0 -4 1q-88 0 -187 17z" />
<glyph unicode="K" horiz-adv-x="1376" d="M158 0q6 346 6 770q0 366 -6 674h250v-479l522 479h315l-708 -617q151 -168 396 -430.5t376 -396.5h-303l-598 668q0 -185 14 -668h-264z" />
<glyph unicode="L" horiz-adv-x="1183" d="M193 1446h268q-12 -352 -12 -737q0 -357 10 -562q286 0 635 15l-66 -162h-821q0 73 3 242.5t3 279.5q0 494 -20 924z" />
<glyph unicode="M" horiz-adv-x="2099" d="M84 0q265 1027 350 1376l170 92l475 -1151q85 209 206 529t188 518l190 104q140 -633 387 -1468h-301q-3 12 -94 387.5t-135 597.5q-44 -112 -190 -495.5t-185 -489.5h-131q-55 125 -226.5 501.5t-218.5 485.5q-146 -670 -227 -987h-258z" />
<glyph unicode="N" horiz-adv-x="1740" d="M193 0q1 56 7 333t8 401v92q0 102 -2 242q-3 212 -13 374h137q98 -128 301.5 -346t350 -365t364.5 -362q0 394 -35 1075h264q-15 -340 -15 -671q0 -393 21 -773h-172q-517 549 -973 1008q0 -641 8 -1008h-251z" />
<glyph unicode="O" horiz-adv-x="1822" d="M123 713q0 157 56 294.5t158 240.5t256 162.5t339 59.5q189 0 344 -59.5t255.5 -162.5t155 -240t54.5 -295q0 -123 -41 -239t-116 -209t-174.5 -163t-222.5 -108.5t-255 -38.5t-255 38.5t-222.5 108.5t-174.5 163t-116 209t-41 239zM385 750q0 -120 33 -224.5t90 -180.5 t132 -130.5t160 -81.5t173 -27q142 0 256 69t182 204t68 315q0 144 -45 265.5t-122.5 203t-181.5 127t-221 45.5q-121 0 -221 -47t-165.5 -127t-101.5 -186t-36 -225z" />
<glyph unicode="P" horiz-adv-x="1136" d="M209 0q8 430 8 721q0 287 -8 725q5 0 109.5 1t185.5 1q290 0 424.5 -88t134.5 -281q0 -78 -31.5 -151t-88 -131t-144.5 -92.5t-193 -34.5h-145q0 -276 26 -670h-278zM459 791q17 0 33.5 -1.5t25.5 -1.5q139 0 220 72t81 197q0 250 -268 256q-32 0 -58.5 -1t-29.5 -1 q-4 -282 -4 -520z" />
<glyph unicode="Q" horiz-adv-x="1835" d="M104 713q0 157 56 294.5t158 240.5t256 162.5t339 59.5q189 0 344 -59.5t255.5 -162.5t155 -240t54.5 -295q0 -267 -180 -471.5t-467 -261.5l516 -181l-176 -161q-87 39 -242 107.5t-223 99t-164 74.5t-155 73.5t-107 56.5q-191 99 -305.5 275.5t-114.5 388.5zM367 750 q0 -120 33 -224.5t90 -180.5t131.5 -130.5t159.5 -81.5t173 -27q142 0 256 69t182 204t68 315q0 144 -45 265.5t-122 203t-181 127t-221 45.5q-121 0 -221 -47t-165.5 -127t-101.5 -186t-36 -225z" />
<glyph unicode="R" horiz-adv-x="1280" d="M180 1446q13 0 130.5 1t219.5 1q247 0 377.5 -99.5t130.5 -283.5q0 -158 -99.5 -255.5t-276.5 -117.5q173 -213 587 -692h-329q-41 58 -97 139t-90.5 130t-78 109.5t-72.5 98t-60.5 74t-56 57t-45.5 29.5q0 -333 12 -637h-250q6 322 6 721q0 433 -8 725zM418 1194v-54 q0 -61 1 -147q1 -130 1 -194q34 0 70 -1l36 -1q122 0 195.5 73t73.5 191q0 116 -67 184t-206 68h-100q-4 -47 -4 -119z" />
<glyph unicode="S" horiz-adv-x="1243" d="M166 1118q0 167 124.5 259t325.5 98q12 0 24 1q84 0 190 -18q121 -20 186 -53l49 -248q-64 40 -102 60.5t-105 50.5q-68 28 -138 40q-49 8 -101 9q-23 0 -46 -2q-79 -5 -128.5 -35t-55.5 -86q-3 -34 1.5 -62.5t20.5 -53t31 -42t44.5 -37.5t48.5 -31.5t56.5 -32 t55.5 -30.5q35 -20 92.5 -51.5t92 -51t82.5 -49.5t77.5 -53.5t62.5 -57t51 -66t30 -74.5t12 -88q0 -108 -45 -193.5t-120 -136.5t-166 -77.5t-191 -26.5q-114 0 -234.5 25.5t-220.5 72.5l88 215q4 -3 35.5 -26.5t51 -37t61 -35.5t78.5 -34q36 -12 88 -20q38 -6 78 -6 q14 0 28 1q54 3 101.5 19.5t85 45t56.5 74.5q14 35 14 76q0 13 -1 27q-3 31 -18.5 61.5t-35 55t-54.5 52t-63 46t-77 45t-79 41.5t-85 42q-31 15 -47 23q-133 66 -221 166.5t-88 208.5z" />
<glyph unicode="T" horiz-adv-x="1404" d="M141 1278l4 168h1162v-168q-292 10 -461 12q-4 -170 -5 -366q0 -407 19 -924h-272q14 511 14 949q0 175 -2 339q-280 -3 -459 -10z" />
<glyph unicode="U" horiz-adv-x="1599" d="M143 1444h267q-4 -488 -4 -789q0 -96 9 -170t32.5 -142t63 -113t102 -73.5t147.5 -33.5q14 -1 28 -1l120 14q74 18 129.5 47.5t93.5 57.5t61 52q3 53 3 122t-1.5 154.5t-1.5 126.5q0 199 -18 748h243q-4 -364 -4 -590q0 -609 41 -854h-219l6 152q-124 -105 -248.5 -142 t-263.5 -37q-131 0 -229.5 30t-162.5 84t-104 136t-56.5 177.5t-16.5 217.5q0 490 -17 826z" />
<glyph unicode="V" horiz-adv-x="1568" d="M47 1446h232q289 -738 473 -1110q297 686 428 1108h284q-57 -124 -212.5 -458t-286.5 -616t-170 -370h-119q-98 201 -300.5 669t-328.5 777z" />
<glyph unicode="W" horiz-adv-x="2058" d="M88 1446h293q44 -284 209 -993q223 503 381 888l166 91q34 -88 152.5 -413.5t205.5 -543.5q40 170 122 487t122 484h272q-65 -263 -207.5 -750t-193.5 -696h-170l-387 1083q-178 -411 -439 -1083h-137q-171 708 -389 1446z" />
<glyph unicode="X" horiz-adv-x="1685" d="M119 1448h303q170 -219 631.5 -758.5t586.5 -689.5h-299q-132 183 -497.5 617.5t-724.5 830.5zM150 0q580 684 1163 1448h266q-202 -224 -590 -706t-575 -742h-264z" />
<glyph unicode="Y" horiz-adv-x="1409" d="M-4 1444h336q112 -168 428 -602q35 54 95.5 163.5t140.5 260t96 178.5h254q-78 -118 -261.5 -411.5t-220.5 -348.5q0 -418 21 -684h-271q13 301 13 522q0 72 -2 152z" />
<glyph unicode="Z" horiz-adv-x="1439" d="M109 70q61 84 221 301.5t247.5 337.5t209.5 289t208 292q-459 -4 -796 -20l39 174h901l161 -125q-122 -175 -431 -597t-420 -579q284 0 467.5 20t451.5 83l-102 -203q-64 -12 -129.5 -21t-149.5 -14t-136.5 -8t-162 -3.5t-149 -0.5t-174 2t-166.5 2z" />
<glyph unicode="a" horiz-adv-x="1058" />
<glyph unicode="b" horiz-adv-x="1234" />
<glyph unicode="c" horiz-adv-x="1153" d="M100 584q0 167 74 304t211 217.5t309 80.5h23q65 0 147 -14q96 -16 148 -42l47 -231q-49 39 -83 63t-93 57t-122 45q-35 7 -70 7l-56 -4q-127 -19 -204 -144.5t-77 -314.5q0 -65 13 -130.5t42 -128.5t70.5 -112.5t102.5 -82.5t133 -39h13q187 0 376 143l-39 -225 q-67 -41 -163 -53.5t-224 -12.5q-95 0 -185 35t-160 96t-123 138.5t-81.5 168t-28.5 179.5z" />
<glyph unicode="d" horiz-adv-x="1263" />
<glyph unicode="e" horiz-adv-x="1310" d="M141 580q0 269 147.5 437.5t405.5 168.5q242 0 374 -142q122 -132 123 -363q0 -18 -1 -36l-25 -20h-784q-4 -32 -4 -65q0 -52 11 -106q18 -86 59 -158.5t109.5 -121.5t152.5 -59q16 -2 33 -2q42 -1 90 11q66 16 106.5 34.5t104.5 53t75 40.5l-43 -221 q-23 -12 -57.5 -24.5t-112.5 -26t-164 -13.5q-114 0 -221.5 42.5t-192 119.5t-135.5 194.5t-51 256.5zM391 754h559q1 11 1 21q1 91 -39 159q-44 76 -115 107q-54 24 -114 24q-19 0 -38 -2q-100 -12 -166.5 -89t-87.5 -220z" />
<glyph unicode="f" horiz-adv-x="653" />
<glyph unicode="g" horiz-adv-x="1069" />
<glyph unicode="h" horiz-adv-x="1280" />
<glyph unicode="i" horiz-adv-x="655" d="M238 1159h225v2q-8 -312 -8 -618q0 -82 4 -180.5t10 -212t8 -150.5h-235q6 486 6 528q0 299 -10 631zM240 1378l2 152q66 0 276 10l-65 -162h-213z" />
<glyph unicode="j" horiz-adv-x="614" d="M-195 -123q61 -16 104 -25.5t91 -16.5q36 -5 64 -5h15q32 2 64 10.5t52 28t36.5 49.5t23.5 74t7 102q0 607 -18 1065h225q-10 -233 -10 -1096q-2 -107 -36 -185t-88.5 -121t-132.5 -63q-75 -21 -156 -21q-2 0 -4 1q-83 0 -181 17zM246 1378l2 152q66 0 276 10l-65 -162 h-213z" />
<glyph unicode="k" horiz-adv-x="1126" />
<glyph unicode="l" horiz-adv-x="577" d="M201 1534h231v2q-8 -414 -8 -819q0 -108 4 -238t10 -280t8 -199h-241q6 639 6 698q0 396 -10 836z" />
<glyph unicode="m" horiz-adv-x="1929" />
<glyph unicode="n" horiz-adv-x="1296" />
<glyph unicode="o" horiz-adv-x="1341" d="M82 580q0 170 70 307.5t206.5 220t317.5 82.5q185 0 322 -82.5t205.5 -219.5t68.5 -308q0 -124 -47.5 -237.5t-127.5 -195t-190 -130t-231 -48.5q-160 0 -297 81.5t-217 222.5t-80 307zM332 606q0 -240 103 -379t261 -139q139 0 227.5 127t88.5 344q0 239 -93 377.5 t-260 138.5q-80 0 -143.5 -37.5t-103 -102.5t-60 -149t-20.5 -180z" />
<glyph unicode="p" horiz-adv-x="1253" />
<glyph unicode="q" horiz-adv-x="1251" />
<glyph unicode="r" horiz-adv-x="790" />
<glyph unicode="s" horiz-adv-x="976" d="M94 276q49 -31 82.5 -50t90.5 -47t114 -43t113 -17h9q84 0 132 55q38 43 38 104q0 22 -5 46q-8 38 -30.5 71t-65.5 64t-75 50.5t-97 54t-93 50.5q-92 53 -143 129q-47 70 -47 151v13q4 68 36.5 121t86 86.5t120 51.5t142.5 20q11 0 23 1q65 -1 146 -15q96 -16 148 -42 l47 -231q-80 63 -192 105q-84 31 -167 32q-28 0 -56 -4q-54 -3 -83 -27t-36 -57q-6 -31 9 -62t50.5 -60t59 -45t63.5 -40q16 -10 60.5 -35.5t66.5 -38.5t62 -40t62 -46.5t51 -50.5t43.5 -59.5t26.5 -65.5q11 -37 11 -80q0 -173 -116 -267q-113 -92 -304 -91h-12 q-104 1 -194 23.5t-132 48.5z" />
<glyph unicode="t" horiz-adv-x="735" />
<glyph unicode="u" horiz-adv-x="1249" />
<glyph unicode="v" horiz-adv-x="1083" />
<glyph unicode="w" horiz-adv-x="1730" />
<glyph unicode="x" horiz-adv-x="1091" />
<glyph unicode="y" horiz-adv-x="1105" />
<glyph unicode="z" horiz-adv-x="1200" d="M100 57q90 123 235 319t258.5 351t207.5 289q-91 0 -206.5 -4t-264.5 -11t-168 -8l35 166h710l166 -127q-104 -149 -329 -450t-326 -443q231 0 345 15t361 73l-102 -192q-55 -11 -107 -18.5t-117.5 -12t-103.5 -7t-123.5 -2.5h-114t-139 1.5t-139.5 1.5z" />
<glyph unicode="&#xad;" d="M127 680v180q347 -10 491 -10q283 0 584 14l-47 -176q-212 8 -522 8q-252 0 -506 -16z" />
<glyph unicode="&#x2000;" horiz-adv-x="770" />
<glyph unicode="&#x2001;" horiz-adv-x="1540" />
<glyph unicode="&#x2002;" horiz-adv-x="770" />
<glyph unicode="&#x2003;" horiz-adv-x="1540" />
<glyph unicode="&#x2004;" horiz-adv-x="513" />
<glyph unicode="&#x2005;" horiz-adv-x="385" />
<glyph unicode="&#x2006;" horiz-adv-x="256" />
<glyph unicode="&#x2007;" horiz-adv-x="256" />
<glyph unicode="&#x2008;" horiz-adv-x="192" />
<glyph unicode="&#x2009;" horiz-adv-x="308" />
<glyph unicode="&#x200a;" horiz-adv-x="85" />
<glyph unicode="&#x2010;" d="M127 680v180q347 -10 491 -10q283 0 584 14l-47 -176q-212 8 -522 8q-252 0 -506 -16z" />
<glyph unicode="&#x2011;" d="M127 680v180q347 -10 491 -10q283 0 584 14l-47 -176q-212 8 -522 8q-252 0 -506 -16z" />
<glyph unicode="&#x2012;" d="M127 680v180q347 -10 491 -10q283 0 584 14l-47 -176q-212 8 -522 8q-252 0 -506 -16z" />
<glyph unicode="&#x2013;" horiz-adv-x="1255" d="M127 680v180q331 -10 468 -10q269 0 556 14l-45 -176q-202 8 -497 8q-240 0 -482 -16z" />
<glyph unicode="&#x2014;" horiz-adv-x="2279" d="M127 680v180q661 -10 935 -10q540 0 1113 14l-90 -176q-403 8 -994 8q-480 0 -964 -16z" />
<glyph unicode="&#x202f;" horiz-adv-x="308" />
<glyph unicode="&#x205f;" horiz-adv-x="385" />
<glyph unicode="&#x25fc;" horiz-adv-x="1024" d="M0 0z" />
</font>
</defs>
</svg>
